<svg width="19" height="29" viewBox="0 0 19 29" fill="none" xmlns="http://www.w3.org/2000/svg">
  <path fill-rule="evenodd" clip-rule="evenodd" d="M9.99931 29C9.73409 29 9.47974 28.8946 9.2922 28.7071C9.10467 28.5196 8.99931 28.2652 8.99931 28V4.41421L2.70731 10.7071C2.51954 10.8949 2.26486 11.0003 1.99931 11.0003C1.73376 11.0003 1.47908 10.8949 1.29131 10.7071C1.10354 10.5194 0.998047 10.2658 0.998047 10C0.998047 9.73417 1.10354 9.47949 1.29131 9.29172L9.29131 1.29172C9.3842 1.19883 9.49455 1.12492 9.61604 1.07449C9.73753 1.02405 9.86777 0.998047 9.99931 0.998047C10.1308 0.998047 10.2611 1.02405 10.3826 1.07449C10.5041 1.12492 10.6144 1.19883 10.7073 1.29172L18.7073 9.29172C18.8951 9.47949 19.0006 9.73417 19.0006 10C19.0006 10.2658 18.8951 10.5194 18.7073 10.7071C18.5195 10.8949 18.2649 11.0003 17.9993 11.0003C17.7338 11.0003 17.4791 10.8949 17.2913 10.7071L10.9993 4.41421V28C10.9993 28.2652 10.894 28.5196 10.7064 28.7071C10.5189 28.8946 10.2645 29 9.99931 29Z" fill="white"/>
</svg>
